# xmcd CD database file
#
# Track frame offsets:
#	150
#	15202
#	29266
#
# Disc length: 622 seconds
#
# Revision: 1
# Processed by: cddbd v1.5.2PL0 Copyright (c) Steve Scherf et al.
# Submitted via: CDex 1.51
#
DISCID=12026c03
DTITLE=Keimzeit - Maggie Maxi-CD
DYEAR=1900
DGENRE=
TTITLE0=Maggie
TTITLE1=Padam
TTITLE2=Rosie
EXTD=
EXTT0=
EXTT1=
EXTT2=
PLAYORDER=
